<svg width="341" height="67" viewBox="0 0 341 67" fill="none" xmlns="http://www.w3.org/2000/svg">
<mask id="mask0_810_2811" style="mask-type:luminance" maskUnits="userSpaceOnUse" x="0" y="16" width="33" height="36">
<path d="M32.3124 16H0.675781V52H32.3124V16Z" fill="white"/>
</mask>
<g mask="url(#mask0_810_2811)">
<mask id="mask1_810_2811" style="mask-type:luminance" maskUnits="userSpaceOnUse" x="0" y="16" width="33" height="36">
<path d="M32.3124 16H0.675781V52H32.3124V16Z" fill="white"/>
</mask>
<g mask="url(#mask1_810_2811)">
<path fill-rule="evenodd" clip-rule="evenodd" d="M16.833 51.9932C21.8362 51.3014 32.3124 40.2674 32.3124 31.8119C32.3124 30.3336 32.1078 28.9037 31.7248 27.5459L24.3297 34.8764C24.3783 34.9979 24.4043 35.1306 24.4043 35.269C24.4043 35.8596 23.9219 36.3377 23.3264 36.3377C23.1863 36.3377 23.0529 36.3107 22.9298 36.2635L17.4251 41.7197C17.4319 41.7681 17.4352 41.8176 17.4352 41.8682C17.4352 42.289 17.189 42.6535 16.8319 42.8279V51.9932H16.833ZM15.9291 52C10.8458 51.3801 0.675781 40.2978 0.675781 31.8119C0.675781 30.4011 0.855431 29.0331 1.19326 27.7315L11.7881 38.2322C11.7543 38.3357 11.7361 38.4471 11.7361 38.5619C11.7361 39.1525 12.2186 39.6306 12.8141 39.6306C12.9304 39.6306 13.0423 39.6126 13.1463 39.5789L15.2908 41.7051C15.2829 41.758 15.2783 41.812 15.2783 41.8671C15.2783 42.3059 15.5461 42.6839 15.928 42.8481L15.9291 52ZM1.48252 26.7482L12.404 37.573C12.5305 37.5213 12.6683 37.4931 12.8141 37.4931C13.4095 37.4931 13.892 37.9713 13.892 38.5619C13.892 38.7059 13.8637 38.8431 13.8117 38.968L15.8082 40.9469C15.8466 40.9244 15.8873 40.9041 15.9291 40.8861V30.4382C15.5314 30.2807 15.2513 29.896 15.2513 29.446C15.2513 29.347 15.2648 29.2502 15.2908 29.1591L11.7328 25.6323C11.6356 25.6615 11.5317 25.6761 11.4243 25.6761C10.8289 25.6761 10.3464 25.198 10.3464 24.6074C10.3464 24.5016 10.3622 24.3993 10.3916 24.3025L5.96587 19.9173C3.92079 21.733 2.36155 24.0809 1.48252 26.7482ZM6.66074 19.3356L10.9916 23.6286C11.1238 23.5713 11.2707 23.5386 11.4243 23.5386C12.0197 23.5386 12.5022 24.0168 12.5022 24.6074C12.5022 24.7604 12.4706 24.9044 12.4118 25.036L15.8795 28.474C15.8952 28.4661 15.9122 28.4594 15.928 28.4526V16.0056C12.4028 16.0979 9.20522 17.3264 6.65962 19.3356H6.66074ZM16.3167 16H16.4014C16.3867 16 16.3732 16 16.3584 16C16.3438 16 16.3302 16 16.3156 16H16.3167ZM16.833 16.0068V28.4999C16.8489 28.5078 16.8635 28.5168 16.8783 28.5246L26.1545 19.3311C23.567 17.3331 20.3424 16.108 16.833 16.0068ZM26.8562 19.9049L17.3946 29.2817C17.4025 29.3346 17.407 29.3898 17.407 29.4449C17.407 29.8555 17.1742 30.211 16.8319 30.391V40.9075C16.8613 40.9221 16.8884 40.9367 16.9155 40.9536L22.3039 35.6133C22.2666 35.5053 22.2463 35.3894 22.2463 35.269C22.2463 34.6784 22.7287 34.2002 23.3242 34.2002C23.445 34.2002 23.5625 34.2205 23.671 34.2565L31.4163 26.5806C30.4955 23.9774 28.9069 21.6846 26.855 19.906L26.8562 19.9049Z" fill="#1E1D28"/>
<path d="M21.8922 16.9775C21.9193 16.9877 21.9453 16.9978 21.9724 17.0068C22.0571 17.0383 22.1419 17.0709 22.2266 17.1035C22.2729 17.1215 22.3181 17.1395 22.3633 17.1575C22.4504 17.1924 22.5362 17.2284 22.6221 17.2644C22.6797 17.288 22.7362 17.3128 22.7927 17.3375C22.874 17.3735 22.9553 17.4095 23.0367 17.4467C23.0921 17.4714 23.1463 17.4973 23.2006 17.5232C23.2593 17.5513 23.3192 17.5794 23.3779 17.6087C23.4344 17.6357 23.4909 17.6638 23.5474 17.6919C23.6423 17.7392 23.7362 17.7875 23.8299 17.837C23.8943 17.8708 23.9575 17.9057 24.022 17.9405C24.0649 17.9642 24.1079 17.9867 24.1496 18.0103C24.2164 18.0474 24.2841 18.0857 24.3507 18.1239C24.3812 18.1408 24.4106 18.1588 24.4411 18.1768C24.5812 18.2589 24.7202 18.3422 24.8569 18.4277C24.8739 18.4378 24.8908 18.4479 24.9078 18.4592C24.9834 18.5064 25.0592 18.5548 25.1338 18.6043C25.1529 18.6167 25.1722 18.629 25.1914 18.6414C25.4343 18.8012 25.6716 18.9677 25.9044 19.1398L25.9179 19.1499C25.9981 19.2095 26.0784 19.2703 26.1575 19.331L16.8812 28.5256C16.8664 28.5166 16.8507 28.5088 16.8359 28.5009V21.2188C18.5149 19.7327 20.2008 18.3197 21.8944 16.9775H21.8922ZM12.4046 37.5729C12.5311 37.5211 12.669 37.493 12.8147 37.493C13.4102 37.493 13.8926 37.9711 13.8926 38.5618C13.8926 38.7058 13.8644 38.843 13.8124 38.9679L15.8089 40.9468C15.8473 40.9243 15.888 40.904 15.9298 40.886V30.4381C15.5321 30.2806 15.2519 29.8959 15.2519 29.4459C15.2519 29.3469 15.2654 29.2501 15.2914 29.159L11.9085 25.8054C10.0443 27.6279 8.18674 29.5426 6.33149 31.553L12.4046 37.5729ZM15.705 42.7141C15.4474 42.5184 15.2801 42.2124 15.2801 41.867C15.2801 41.8119 15.2846 41.7579 15.2925 41.705L13.148 39.5788C13.0429 39.6125 12.9311 39.6305 12.8158 39.6305C12.2204 39.6305 11.7379 39.1524 11.7379 38.5618C11.7379 38.447 11.756 38.3356 11.7899 38.2321L5.72248 32.2179C4.37114 33.6995 3.02094 35.2306 1.67188 36.8146C3.72034 42.3856 8.5596 48.0005 12.5673 50.5633C13.5604 47.9251 14.6123 45.2926 15.7072 42.7153L15.705 42.7141ZM15.9298 28.4525V22.0265C14.8022 23.0435 13.678 24.0932 12.5548 25.1765L15.8812 28.4728C15.897 28.4649 15.914 28.4581 15.9298 28.4525ZM26.8568 19.9048L17.3952 29.2816C17.4031 29.3345 17.4076 29.3896 17.4076 29.4448C17.4076 29.8554 17.1749 30.2109 16.8325 30.3909V40.112C20.1962 32.525 23.9214 25.5894 27.676 20.6698C27.4116 20.4054 27.1393 20.15 26.8568 19.9048Z" fill="#1E1D28"/>
<path d="M16.8331 40.1122C20.1968 32.5252 23.922 25.5895 27.6766 20.6699C28.1161 21.1087 28.5308 21.5722 28.916 22.0604C26.9704 25.5749 24.8112 29.6418 22.9051 34.2858C22.5186 34.4489 22.2475 34.828 22.2475 35.2702C22.2475 35.3905 22.2679 35.5064 22.3051 35.6144L16.9168 40.9548C16.8896 40.9379 16.8614 40.9233 16.8331 40.9087V40.1122ZM15.9292 51.9719V42.8482C15.8478 42.8133 15.7733 42.7672 15.7044 42.7143C14.6096 45.2917 13.5588 47.9242 12.5645 50.5623C13.8005 51.3532 14.9575 51.8527 15.9292 51.9719ZM18.1732 51.5905C18.8635 46.4515 20.1255 41.7715 21.6543 37.528L17.4263 41.7187C17.4331 41.767 17.4365 41.8165 17.4365 41.8672C17.4365 42.2879 17.1901 42.6524 16.8331 42.8268V51.964C17.2455 51.9067 17.6952 51.7807 18.1732 51.5905Z" fill="#1E1D28"/>
</g>
</g>
<path d="M170.081 33.2121H169.874V35.0931H179.98V33.2121H170.081ZM311.167 22.0611H309.33L298.094 46.8336H300.156L310.235 24.4506L316.425 38.0181H308.273L307.309 39.8991H317.276L320.445 46.8336H322.507L311.167 22.0611ZM231.497 44.9841V22.0611H229.615V46.8336H242.337V44.9886H231.497V44.9841ZM89.3977 22.0611V33.4911H77.4459V35.3361H89.3977V46.8336H91.2794V22.0611H89.3977ZM54.3749 28.0191V46.8336H56.2566V28.0191H54.3749ZM46.1504 22.0611V23.9106H64.4811V22.0611H46.1504ZM329.691 44.9886V22.0611H327.81V46.8336H340.531V44.9886H329.691ZM71.4452 22.0611V46.8336H73.3269V22.0611H71.4452ZM156.562 22.0611L146.321 43.5216L136.08 22.0611H134.086L145.916 46.8336H146.731L158.557 22.0611H156.562ZM165.759 44.9841V23.9106H180.012V22.0611H163.878V46.8336H180.466V44.9886H165.759V44.9841ZM219.923 25.7736C217.591 23.3211 214.395 21.9756 210.929 21.9756C204.05 21.9756 198.455 27.5691 198.455 34.4496C198.455 41.3301 204.05 46.9236 210.929 46.9236C217.807 46.9236 223.407 41.3301 223.407 34.4496V33.2121H210.722V34.9896H221.593C221.305 40.7181 216.691 45.1461 210.929 45.1461C205.167 45.1461 200.251 40.4526 200.251 34.4496C200.251 28.4466 204.942 23.7531 210.929 23.7531C213.882 23.7531 216.623 24.9096 218.609 26.9526L219.919 25.7736H219.923ZM126.532 22.0611V46.8336H128.414V22.0611H126.532ZM110.461 38.9316H110.961C115.76 38.9316 119.671 35.1516 119.671 30.4941C119.671 25.8366 115.76 22.0611 110.965 22.0611H100.215V46.8336H102.047V23.8566H110.965C114.765 23.8566 117.844 26.8446 117.844 30.4986C117.844 34.1526 114.765 37.1406 110.965 37.1406H105.28L117.704 46.8336H120.743L110.461 38.9361V38.9316ZM257.125 45.0156C251.138 45.0156 246.217 40.2591 246.217 34.4226C246.217 28.5861 251.133 23.8656 257.125 23.8656C263.117 23.8656 268.032 28.5861 268.032 34.4226C268.032 40.2591 263.112 45.0156 257.125 45.0156ZM257.125 22.0296C250.048 22.0296 244.3 27.5511 244.3 34.4316C244.3 41.3121 250.044 46.8696 257.125 46.8696C264.206 46.8696 269.95 41.3121 269.95 34.4316C269.95 27.5511 264.206 22.0296 257.125 22.0296ZM289.451 33.8736C290.545 33.5181 291.441 32.9421 292.098 32.1546C292.935 31.1511 293.377 29.8416 293.377 28.3026C293.377 26.3451 292.647 24.7791 291.288 23.6991C289.937 22.6281 287.984 22.0656 285.566 22.0656H275.388V46.8336H285.634C288.416 46.8336 290.649 46.2261 292.197 45.0741C293.755 43.9131 294.592 42.2121 294.592 40.0791C294.592 38.3241 294.038 36.8436 292.985 35.7411C292.116 34.8321 290.919 34.1976 289.451 33.8736ZM290.869 43.6431C289.658 44.5071 287.862 44.9706 285.535 44.9526H277.274V23.9106H285.535C287.457 23.9106 288.952 24.3426 289.955 25.1166C290.955 25.8861 291.495 27.0156 291.495 28.4736C291.495 29.9316 290.95 31.1151 289.955 31.8936C288.952 32.6766 287.461 33.1086 285.535 33.1086H281.389V34.9536H285.535C287.862 34.9536 289.663 35.4216 290.874 36.2676C292.076 37.1046 292.715 38.3286 292.715 39.9036C292.715 41.4786 292.071 42.7881 290.874 43.6431H290.869Z" fill="#1E1D28"/>
</svg>
